# xmcd CD database file
#
# Track frame offsets:
#	150
#	12353
#	26178
#	39475
#	50552
#	62497
#	72987
#	84788
#	99143
#	114827
#	126133
#	137847
#	150596
#	163013
#	178003
#	191208
#	204086
#	217552
#
# Disc length: 3055 seconds
#
# Revision: 0
# Processed by: cddbd v1.5.1PL2 Copyright (c) Steve Scherf et al.
# Submitted via: CDex 1.51
#
DISCID=e50bed12
DTITLE=Fast Waller - Vocal Jazz
DYEAR=2001
DGENRE=Jazz
TTITLE0=Alligator Crawl
TTITLE1=Ain't Misbehavin'
TTITLE2=It's A Sin To Tell A Lie
TTITLE3=There's Going To Be The Devil To Play
TTITLE4=Honeysuckle Rose
TTITLE5=Bye Bye Baby
TTITLE6=Lulu's Back In Town
TTITLE7=Take It Easy
TTITLE8=Somebody Stole My Girl
TTITLE9=The Curse Of An Aching Heart
TTITLE10=Whose Honey Are You
TTITLE11=What's The Reason
TTITLE12=Have A Little Dream On Me
TTITLE13=I'm Groving Fonder Of You
TTITLE14=If It Isn't Love
TTITLE15=Christopher Columbus
TTITLE16=Dream Man
TTITLE17=(Oh Susannah) Dust Off That Old Pianna
EXTD=YEAR: 2001
EXTT0=
EXTT1=
EXTT2=
EXTT3=
EXTT4=
EXTT5=
EXTT6=
EXTT7=
EXTT8=
EXTT9=
EXTT10=
EXTT11=
EXTT12=
EXTT13=
EXTT14=
EXTT15=
EXTT16=
EXTT17=
PLAYORDER=
